<svg width="81" height="22" viewBox="0 0 81 22" fill="none" xmlns="http://www.w3.org/2000/svg">
<path d="M3.476 15.764C3.476 16.3653 3.57867 16.8787 3.784 17.304C3.98933 17.7293 4.27533 18.0813 4.642 18.36C5.00867 18.624 5.42667 18.822 5.896 18.954C6.38 19.0713 6.90067 19.13 7.458 19.13C8.05933 19.13 8.57267 19.064 8.998 18.932C9.42333 18.7853 9.768 18.602 10.032 18.382C10.296 18.162 10.4867 17.9127 10.604 17.634C10.7213 17.3407 10.78 17.0473 10.78 16.754C10.78 16.1527 10.6407 15.7127 10.362 15.434C10.098 15.1407 9.80467 14.9353 9.482 14.818C8.92467 14.6127 8.272 14.422 7.524 14.246C6.79067 14.0553 5.88133 13.8133 4.796 13.52C4.12133 13.344 3.55667 13.1167 3.102 12.838C2.662 12.5447 2.31 12.222 2.046 11.87C1.782 11.518 1.59133 11.144 1.474 10.748C1.37133 10.352 1.32 9.94867 1.32 9.538C1.32 8.746 1.48133 8.064 1.804 7.492C2.14133 6.90533 2.58133 6.42133 3.124 6.04C3.66667 5.65867 4.28267 5.38 4.972 5.204C5.66133 5.01333 6.358 4.918 7.062 4.918C7.88333 4.918 8.65333 5.028 9.372 5.248C10.1053 5.45333 10.7433 5.76867 11.286 6.194C11.8433 6.61933 12.2833 7.14733 12.606 7.778C12.9287 8.394 13.09 9.11267 13.09 9.934H10.34C10.2667 8.922 9.922 8.21067 9.306 7.8C8.69 7.37467 7.90533 7.162 6.952 7.162C6.62933 7.162 6.29933 7.19867 5.962 7.272C5.62467 7.33067 5.31667 7.44067 5.038 7.602C4.75933 7.74867 4.52467 7.954 4.334 8.218C4.158 8.482 4.07 8.812 4.07 9.208C4.07 9.76533 4.23867 10.2053 4.576 10.528C4.928 10.836 5.38267 11.0707 5.94 11.232C5.99867 11.2467 6.226 11.3127 6.622 11.43C7.03267 11.5327 7.48733 11.65 7.986 11.782C8.48467 11.914 8.96867 12.046 9.438 12.178C9.922 12.2953 10.2667 12.3833 10.472 12.442C10.9853 12.6033 11.4327 12.8233 11.814 13.102C12.1953 13.3807 12.5107 13.7033 12.76 14.07C13.024 14.422 13.2147 14.8033 13.332 15.214C13.464 15.6247 13.53 16.0353 13.53 16.446C13.53 17.326 13.3467 18.0813 12.98 18.712C12.628 19.328 12.1587 19.834 11.572 20.23C10.9853 20.626 10.318 20.912 9.57 21.088C8.822 21.2787 8.05933 21.374 7.282 21.374C6.38733 21.374 5.544 21.264 4.752 21.044C3.96 20.824 3.27067 20.4867 2.684 20.032C2.09733 19.5773 1.628 18.998 1.276 18.294C0.924 17.5753 0.740667 16.732 0.726 15.764H3.476ZM23.2636 13.432C23.161 12.728 22.875 12.2 22.4056 11.848C21.951 11.4813 21.3716 11.298 20.6676 11.298C20.345 11.298 20.0003 11.3567 19.6336 11.474C19.267 11.5767 18.9296 11.782 18.6216 12.09C18.3136 12.3833 18.057 12.8013 17.8516 13.344C17.6463 13.872 17.5436 14.5687 17.5436 15.434C17.5436 15.9033 17.595 16.3727 17.6976 16.842C17.815 17.3113 17.991 17.7293 18.2256 18.096C18.475 18.4627 18.7903 18.7633 19.1716 18.998C19.553 19.218 20.015 19.328 20.5576 19.328C21.291 19.328 21.8923 19.1007 22.3616 18.646C22.8456 18.1913 23.1463 17.5533 23.2636 16.732H25.7716C25.537 18.2133 24.9723 19.35 24.0776 20.142C23.1976 20.9193 22.0243 21.308 20.5576 21.308C19.663 21.308 18.871 21.1613 18.1816 20.868C17.507 20.56 16.935 20.1493 16.4656 19.636C15.9963 19.108 15.637 18.4847 15.3876 17.766C15.153 17.0473 15.0356 16.27 15.0356 15.434C15.0356 14.5833 15.153 13.784 15.3876 13.036C15.6223 12.288 15.9743 11.6427 16.4436 11.1C16.913 10.5427 17.4923 10.11 18.1816 9.802C18.8856 9.47933 19.707 9.318 20.6456 9.318C21.3056 9.318 21.929 9.406 22.5156 9.582C23.117 9.74333 23.645 9.99267 24.0996 10.33C24.569 10.6673 24.9503 11.0927 25.2436 11.606C25.537 12.1193 25.713 12.728 25.7716 13.432H23.2636ZM33.0242 21.308C32.1149 21.308 31.3009 21.1613 30.5822 20.868C29.8782 20.56 29.2769 20.142 28.7782 19.614C28.2942 19.086 27.9202 18.4553 27.6562 17.722C27.4069 16.9887 27.2822 16.182 27.2822 15.302C27.2822 14.4367 27.4069 13.6373 27.6562 12.904C27.9202 12.1707 28.2942 11.54 28.7782 11.012C29.2769 10.484 29.8782 10.0733 30.5822 9.78C31.3009 9.472 32.1149 9.318 33.0242 9.318C33.9336 9.318 34.7402 9.472 35.4442 9.78C36.1629 10.0733 36.7642 10.484 37.2482 11.012C37.7469 11.54 38.1209 12.1707 38.3702 12.904C38.6342 13.6373 38.7662 14.4367 38.7662 15.302C38.7662 16.182 38.6342 16.9887 38.3702 17.722C38.1209 18.4553 37.7469 19.086 37.2482 19.614C36.7642 20.142 36.1629 20.56 35.4442 20.868C34.7402 21.1613 33.9336 21.308 33.0242 21.308ZM33.0242 19.328C33.5816 19.328 34.0656 19.2107 34.4762 18.976C34.8869 18.7413 35.2242 18.4333 35.4882 18.052C35.7522 17.6707 35.9429 17.2453 36.0602 16.776C36.1922 16.292 36.2582 15.8007 36.2582 15.302C36.2582 14.818 36.1922 14.334 36.0602 13.85C35.9429 13.366 35.7522 12.9407 35.4882 12.574C35.2242 12.1927 34.8869 11.8847 34.4762 11.65C34.0656 11.4153 33.5816 11.298 33.0242 11.298C32.4669 11.298 31.9829 11.4153 31.5722 11.65C31.1616 11.8847 30.8242 12.1927 30.5602 12.574C30.2962 12.9407 30.0982 13.366 29.9662 13.85C29.8489 14.334 29.7902 14.818 29.7902 15.302C29.7902 15.8007 29.8489 16.292 29.9662 16.776C30.0982 17.2453 30.2962 17.6707 30.5602 18.052C30.8242 18.4333 31.1616 18.7413 31.5722 18.976C31.9829 19.2107 32.4669 19.328 33.0242 19.328ZM40.8513 9.626H43.2053V11.826H43.2493C43.3226 11.518 43.4619 11.2173 43.6673 10.924C43.8873 10.6307 44.1439 10.3667 44.4373 10.132C44.7453 9.88267 45.0826 9.68467 45.4493 9.538C45.8159 9.39133 46.1899 9.318 46.5713 9.318C46.8646 9.318 47.0626 9.32533 47.1653 9.34C47.2826 9.35467 47.3999 9.36933 47.5173 9.384V11.804C47.3413 11.7747 47.1579 11.7527 46.9673 11.738C46.7913 11.7087 46.6153 11.694 46.4393 11.694C46.0139 11.694 45.6106 11.782 45.2293 11.958C44.8626 12.1193 44.5399 12.3687 44.2613 12.706C43.9826 13.0287 43.7626 13.432 43.6013 13.916C43.4399 14.4 43.3593 14.9573 43.3593 15.588V21H40.8513V9.626ZM48.6516 5.292H51.1596V7.668H48.6516V5.292ZM48.6516 9.626H51.1596V21H48.6516V9.626ZM52.8803 5.292H56.1583L59.7223 10.836L63.4403 5.292H66.5203L61.3283 12.86L66.8943 21H63.5503L59.6343 14.994L55.6523 21H52.5063L58.0723 12.86L52.8803 5.292Z" fill="url(#paint0_linear_20_18770)"/>
<defs>
<linearGradient id="paint0_linear_20_18770" x1="-1.5" y1="14" x2="82" y2="13.5" gradientUnits="userSpaceOnUse">
<stop stop-color="#40A3EC"/>
<stop offset="1" stop-color="#FE842B"/>
</linearGradient>
</defs>
</svg>
