<svg width="24" height="24" viewBox="0 0 24 24" fill="none" xmlns="http://www.w3.org/2000/svg">
<g opacity="0.9">
<path d="M15.5 18.5C15.5 20.433 13.933 22 12 22C10.067 22 8.5 20.433 8.5 18.5" stroke="#656565" stroke-width="1.4" stroke-linecap="round" stroke-linejoin="round"/>
<path d="M19 11V12.7558C19 13.5514 19.3161 14.3145 19.8787 14.8771L20.4819 15.4803C20.8136 15.8121 21 16.262 21 16.7311C21 17.708 20.208 18.5 19.2311 18.5H4.76887C3.79195 18.5 3 17.708 3 16.7311C3 16.262 3.18636 15.8121 3.51809 15.4803L4.12132 14.8771C4.68393 14.3145 5 13.5514 5 12.7558V10C5 6.13401 8.13401 3 12 3" stroke="#656565" stroke-width="1.4" stroke-linecap="round" stroke-linejoin="round"/>
</g>
<path d="M20.64 5.12C20.64 3.39687 19.2432 2 17.52 2C15.7969 2 14.4 3.39687 14.4 5.12C14.4 6.84313 15.7969 8.24 17.52 8.24C19.2432 8.24 20.64 6.84313 20.64 5.12Z" fill="#FF3D3D"/>
<path d="M20.64 5.12C20.64 3.39687 19.2432 2 17.52 2C15.7969 2 14.4 3.39687 14.4 5.12C14.4 6.84313 15.7969 8.24 17.52 8.24C19.2432 8.24 20.64 6.84313 20.64 5.12Z" fill="black" fill-opacity="0.05"/>
</svg>
