<svg width="20" height="20" viewBox="0 0 20 20" fill="none" xmlns="http://www.w3.org/2000/svg">
<path d="M15.8333 18.3333L11.6667 10.8333L7.5 18.3333" stroke="white" stroke-width="1.25" stroke-linecap="round" stroke-linejoin="round"/>
<path d="M13.2663 3.33333L5.85596 7.71325C5.03743 8.19704 4.75698 9.26849 5.22957 10.1065L6.08523 11.6237C6.55781 12.4617 7.60446 12.7487 8.423 12.265L15.8333 7.88507" stroke="white" stroke-width="1.25" stroke-linejoin="round"/>
<path d="M13.5163 3.7131C13.1398 3.06065 13.3632 2.22635 14.0153 1.84966C14.6675 1.47296 15.5014 1.69651 15.8779 2.34897L18.1504 6.2869C18.5269 6.93936 18.3035 7.77365 17.6513 8.15035C16.9992 8.52709 16.1653 8.30349 15.7888 7.65104L13.5163 3.7131Z" stroke="white" stroke-width="1.25" stroke-linecap="round" stroke-linejoin="round"/>
<path d="M1.66667 11.8871L2.28181 13.0268M2.28181 13.0268L2.89695 14.1667M2.28181 13.0268L5.41667 11.25" stroke="white" stroke-width="1.25" stroke-linecap="round" stroke-linejoin="round"/>
</svg>
