<svg width="30" height="30" viewBox="0 0 30 30" fill="none" xmlns="http://www.w3.org/2000/svg">
<path d="M0 15C0 6.71573 6.71573 0 15 0C23.2843 0 30 6.71573 30 15C30 23.2843 23.2843 30 15 30C6.71573 30 0 23.2843 0 15Z" fill="#40A3EC"/>
<path d="M0 15C0 6.71573 6.71573 0 15 0C23.2843 0 30 6.71573 30 15C30 23.2843 23.2843 30 15 30C6.71573 30 0 23.2843 0 15Z" fill="url(#paint0_linear_20_18694)"/>
<path d="M0 15C0 6.71573 6.71573 0 15 0C23.2843 0 30 6.71573 30 15C30 23.2843 23.2843 30 15 30C6.71573 30 0 23.2843 0 15Z" fill="white" fill-opacity="0.05"/>
<path d="M14.4499 16.0333L16.4916 13.9917M20.0194 10.5226C18.7489 9.15431 9.19206 12.506 9.19996 13.7298C9.2089 15.1175 12.9322 15.5443 13.9642 15.8339C14.5848 16.008 14.751 16.1865 14.894 16.8372C15.5421 19.7845 15.8675 21.2504 16.6091 21.2831C17.7912 21.3354 21.2594 11.8578 20.0194 10.5226Z" stroke="white" stroke-linecap="round"/>
<defs>
<linearGradient id="paint0_linear_20_18694" x1="0" y1="15" x2="30" y2="15" gradientUnits="userSpaceOnUse">
<stop stop-color="#FE842B" stop-opacity="0"/>
<stop offset="1" stop-color="#FE842B"/>
</linearGradient>
</defs>
</svg>
